<svg xmlns="http://www.w3.org/2000/svg" width="512" height="512" viewBox="0 0 512 512">
  <rect width="512" height="512" rx="100" fill="#0a0a0a"/>
  <path d="M164.5 160c-24.5 0-44.5 20-44.5 44.5s20 44.5 44.5 44.5c15.2 0 28.6-7.7 36.5-19.4l41.5 42.1-41.5 42.1c-7.9-11.7-21.3-19.4-36.5-19.4-24.5 0-44.5 20-44.5 44.5s20 44.5 44.5 44.5 44.5-20 44.5-44.5c0-4.3-.6-8.4-1.8-12.3l49.4-50.1 82.9 84.1c4.5 4.6 11.8 4.7 16.4.2l12.8-12.6c4.6-4.5 4.7-11.8.2-16.4l-95.7-97 95.7-97c4.5-4.6 4.4-11.9-.2-16.4l-12.8-12.6c-4.6-4.5-11.9-4.4-16.4.2l-82.9 84.1-49.4-50.1c1.2-3.9 1.8-8 1.8-12.3 0-24.5-20-44.5-44.5-44.5zm0 30.5c7.8 0 14 6.2 14 14s-6.2 14-14 14-14-6.2-14-14 6.2-14 14-14zm0 183c7.8 0 14 6.2 14 14s-6.2 14-14 14-14-6.2-14-14 6.2-14 14-14z" fill="white"/>
</svg>
